<svg width="17" height="16" viewBox="0 0 17 16" fill="none" xmlns="http://www.w3.org/2000/svg">
<path d="M8.50033 15.5981L7.26778 14.4931C5.83689 13.2038 4.65393 12.0917 3.7189 11.1567C2.78386 10.2216 2.04008 9.38224 1.48756 8.63846C0.935037 7.89468 0.54898 7.21112 0.329388 6.58776C0.109796 5.9644 0 5.32687 0 4.67518C0 3.34346 0.446267 2.23134 1.3388 1.3388C2.23134 0.446267 3.34346 0 4.67518 0C5.41188 0 6.11316 0.155839 6.77901 0.467518C7.44487 0.779197 8.01865 1.21838 8.50033 1.78507C8.98202 1.21838 9.55579 0.779197 10.2216 0.467518C10.8875 0.155839 11.5888 0 12.3255 0C13.6572 0 14.7693 0.446267 15.6619 1.3388C16.5544 2.23134 17.0007 3.34346 17.0007 4.67518C17.0007 5.32687 16.8909 5.9644 16.6713 6.58776C16.4517 7.21112 16.0656 7.89468 15.5131 8.63846C14.9606 9.38224 14.2168 10.2216 13.2818 11.1567C12.3467 12.0917 11.1638 13.2038 9.73288 14.4931L8.50033 15.5981Z" fill="#72DEEF"/>
</svg>
