<svg width="17" height="16" viewBox="0 0 17 16" fill="none" xmlns="http://www.w3.org/2000/svg">
<path d="M8.50033 15.5981L7.26778 14.4931C5.83689 13.2038 4.65393 12.0917 3.7189 11.1567C2.78386 10.2216 2.04008 9.38224 1.48756 8.63846C0.935037 7.89468 0.54898 7.21112 0.329388 6.58776C0.109796 5.9644 0 5.32687 0 4.67518C0 3.34346 0.446267 2.23134 1.3388 1.3388C2.23134 0.446267 3.34346 0 4.67518 0C5.41188 0 6.11316 0.155839 6.77901 0.467518C7.44487 0.779197 8.01865 1.21838 8.50033 1.78507C8.98202 1.21838 9.55579 0.779197 10.2216 0.467518C10.8875 0.155839 11.5888 0 12.3255 0C13.6572 0 14.7693 0.446267 15.6619 1.3388C16.5544 2.23134 17.0007 3.34346 17.0007 4.67518C17.0007 5.32687 16.8909 5.9644 16.6713 6.58776C16.4517 7.21112 16.0656 7.89468 15.5131 8.63846C14.9606 9.38224 14.2168 10.2216 13.2818 11.1567C12.3467 12.0917 11.1638 13.2038 9.73288 14.4931L8.50033 15.5981ZM8.50033 13.303C9.86038 12.0846 10.9796 11.0398 11.858 10.1685C12.7363 9.29724 13.4305 8.53929 13.9405 7.89468C14.4506 7.25008 14.8047 6.6763 15.0031 6.17337C15.2014 5.67043 15.3006 5.17104 15.3006 4.67518C15.3006 3.82515 15.0173 3.11679 14.4506 2.5501C13.8839 1.98341 13.1755 1.70007 12.3255 1.70007C11.6596 1.70007 11.0433 1.88778 10.4767 2.26321C9.90997 2.63864 9.52037 3.11679 9.30786 3.69764H7.6928C7.48029 3.11679 7.09069 2.63864 6.52401 2.26321C5.95732 1.88778 5.34104 1.70007 4.67518 1.70007C3.82515 1.70007 3.11679 1.98341 2.5501 2.5501C1.98341 3.11679 1.70007 3.82515 1.70007 4.67518C1.70007 5.17104 1.79924 5.67043 1.99758 6.17337C2.19592 6.6763 2.5501 7.25008 3.06012 7.89468C3.57014 8.53929 4.26433 9.29724 5.1427 10.1685C6.02107 11.0398 7.14028 12.0846 8.50033 13.303Z" fill="#72DEEF"/>
</svg>
