<svg width="29" height="24" viewBox="0 0 29 24" fill="none" xmlns="http://www.w3.org/2000/svg">
<path d="M21.75 24C20.7 24 19.8125 23.6375 19.0875 22.9125C18.3625 22.1875 18 21.3 18 20.25C18 19.2 18.3625 18.3125 19.0875 17.5875C19.8125 16.8625 20.7 16.5 21.75 16.5C21.95 16.5 22.175 16.5187 22.425 16.5562C22.675 16.5938 22.95 16.675 23.25 16.8V9H28.5V12H25.5V20.25C25.5 21.3 25.1375 22.1875 24.4125 22.9125C23.6875 23.6375 22.8 24 21.75 24ZM12 12C10.35 12 8.9375 11.4125 7.7625 10.2375C6.5875 9.0625 6 7.65 6 6C6 4.35 6.5875 2.9375 7.7625 1.7625C8.9375 0.5875 10.35 0 12 0C13.65 0 15.0625 0.5875 16.2375 1.7625C17.4125 2.9375 18 4.35 18 6C18 7.65 17.4125 9.0625 16.2375 10.2375C15.0625 11.4125 13.65 12 12 12ZM0 24V19.8C0 18.925 0.21875 18.1375 0.65625 17.4375C1.09375 16.7375 1.675 16.2 2.4 15.825C3.95 15.05 5.525 14.4688 7.125 14.0813C8.725 13.6938 10.35 13.5 12 13.5C13.05 13.5 14.0938 13.5812 15.1313 13.7437C16.1688 13.9062 17.2125 14.15 18.2625 14.475C16.6125 15.475 15.5875 16.9062 15.1875 18.7687C14.7875 20.6312 15.1125 22.375 16.1625 24H0Z" fill="url(#paint0_linear_3_7653)"/>
<defs>
<linearGradient id="paint0_linear_3_7653" x1="14.25" y1="0" x2="14.25" y2="24" gradientUnits="userSpaceOnUse">
<stop offset="0.427885" stop-color="#A98FDB"/>
<stop offset="1" stop-color="#72DEEF"/>
</linearGradient>
</defs>
</svg>
