<svg width="30" height="30" viewBox="0 0 30 30" fill="none" xmlns="http://www.w3.org/2000/svg">
<path d="M15.75 19.5C16.8 19.5 17.6875 19.1375 18.4125 18.4125C19.1375 17.6875 19.5 16.8 19.5 15.75V7.5H24V4.5H18V12.75C17.675 12.5 17.325 12.3125 16.95 12.1875C16.575 12.0625 16.175 12 15.75 12C14.7 12 13.8125 12.3625 13.0875 13.0875C12.3625 13.8125 12 14.7 12 15.75C12 16.8 12.3625 17.6875 13.0875 18.4125C13.8125 19.1375 14.7 19.5 15.75 19.5ZM9 24C8.175 24 7.46875 23.7062 6.88125 23.1187C6.29375 22.5312 6 21.825 6 21V3C6 2.175 6.29375 1.46875 6.88125 0.88125C7.46875 0.29375 8.175 0 9 0H27C27.825 0 28.5312 0.29375 29.1187 0.88125C29.7062 1.46875 30 2.175 30 3V21C30 21.825 29.7062 22.5312 29.1187 23.1187C28.5312 23.7062 27.825 24 27 24H9ZM3 30C2.175 30 1.46875 29.7062 0.88125 29.1187C0.29375 28.5312 0 27.825 0 27V6H3V27H24V30H3Z" fill="url(#paint0_linear_3_7645)"/>
<defs>
<linearGradient id="paint0_linear_3_7645" x1="15" y1="0" x2="15" y2="30" gradientUnits="userSpaceOnUse">
<stop offset="0.427885" stop-color="#A98FDB"/>
<stop offset="1" stop-color="#72DEEF"/>
</linearGradient>
</defs>
</svg>
