<svg width="27" height="27" viewBox="0 0 27 27" fill="none" xmlns="http://www.w3.org/2000/svg">
<path d="M14.1751 17.5501C15.1201 17.5501 15.9188 17.2239 16.5714 16.5714C17.2239 15.9188 17.5501 15.1201 17.5501 14.1751V6.75004H21.6001V4.05002H16.2001V11.4751C15.9076 11.2501 15.5926 11.0813 15.2551 10.9688C14.9176 10.8563 14.5576 10.8001 14.1751 10.8001C13.2301 10.8001 12.4313 11.1263 11.7788 11.7788C11.1263 12.4313 10.8001 13.2301 10.8001 14.1751C10.8001 15.1201 11.1263 15.9188 11.7788 16.5714C12.4313 17.2239 13.2301 17.5501 14.1751 17.5501ZM8.10005 21.6001C7.35754 21.6001 6.72192 21.3358 6.19316 20.807C5.66441 20.2782 5.40003 19.6426 5.40003 18.9001V2.70002C5.40003 1.95751 5.66441 1.32188 6.19316 0.79313C6.72192 0.264377 7.35754 0 8.10005 0H24.3001C25.0427 0 25.6783 0.264377 26.207 0.79313C26.7358 1.32188 27.0002 1.95751 27.0002 2.70002V18.9001C27.0002 19.6426 26.7358 20.2782 26.207 20.807C25.6783 21.3358 25.0427 21.6001 24.3001 21.6001H8.10005ZM8.10005 18.9001H24.3001V2.70002H8.10005V18.9001ZM2.70002 27.0002C1.95751 27.0002 1.32188 26.7358 0.79313 26.207C0.264377 25.6783 0 25.0427 0 24.3001V5.40003H2.70002V24.3001H21.6001V27.0002H2.70002ZM8.10005 2.70002V18.9001V2.70002Z" fill="#A98FDB"/>
</svg>
