<svg width="27" height="27" viewBox="0 0 27 27" fill="none" xmlns="http://www.w3.org/2000/svg">
<path d="M13.5001 19.5751C15.1876 19.5751 16.622 18.9845 17.8032 17.8032C18.9845 16.622 19.5751 15.1876 19.5751 13.5001C19.5751 11.8126 18.9845 10.3782 17.8032 9.19693C16.622 8.01567 15.1876 7.42505 13.5001 7.42505C11.8126 7.42505 10.3782 8.01567 9.19693 9.19693C8.01567 10.3782 7.42505 11.8126 7.42505 13.5001C7.42505 15.1876 8.01567 16.622 9.19693 17.8032C10.3782 18.9845 11.8126 19.5751 13.5001 19.5751ZM13.5001 14.8501C13.1176 14.8501 12.797 14.7207 12.5382 14.462C12.2795 14.2032 12.1501 13.8826 12.1501 13.5001C12.1501 13.1176 12.2795 12.797 12.5382 12.5382C12.797 12.2795 13.1176 12.1501 13.5001 12.1501C13.8826 12.1501 14.2032 12.2795 14.462 12.5382C14.7207 12.797 14.8501 13.1176 14.8501 13.5001C14.8501 13.8826 14.7207 14.2032 14.462 14.462C14.2032 14.7207 13.8826 14.8501 13.5001 14.8501ZM13.5001 27.0002C11.6326 27.0002 9.87756 26.6458 8.23505 25.937C6.59254 25.2283 5.16378 24.2664 3.94877 23.0514C2.73377 21.8364 1.77189 20.4076 1.06313 18.7651C0.354377 17.1226 0 15.3676 0 13.5001C0 11.6326 0.354377 9.87756 1.06313 8.23505C1.77189 6.59254 2.73377 5.16378 3.94877 3.94877C5.16378 2.73377 6.59254 1.77189 8.23505 1.06313C9.87756 0.354377 11.6326 0 13.5001 0C15.3676 0 17.1226 0.354377 18.7651 1.06313C20.4076 1.77189 21.8364 2.73377 23.0514 3.94877C24.2664 5.16378 25.2283 6.59254 25.937 8.23505C26.6458 9.87756 27.0002 11.6326 27.0002 13.5001C27.0002 15.3676 26.6458 17.1226 25.937 18.7651C25.2283 20.4076 24.2664 21.8364 23.0514 23.0514C21.8364 24.2664 20.4076 25.2283 18.7651 25.937C17.1226 26.6458 15.3676 27.0002 13.5001 27.0002ZM13.5001 24.3001C16.5151 24.3001 19.0689 23.2539 21.1614 21.1614C23.2539 19.0689 24.3001 16.5151 24.3001 13.5001C24.3001 10.4851 23.2539 7.9313 21.1614 5.83879C19.0689 3.74627 16.5151 2.70002 13.5001 2.70002C10.4851 2.70002 7.9313 3.74627 5.83879 5.83879C3.74627 7.9313 2.70002 10.4851 2.70002 13.5001C2.70002 16.5151 3.74627 19.0689 5.83879 21.1614C7.9313 23.2539 10.4851 24.3001 13.5001 24.3001Z" fill="#A98FDB"/>
</svg>
