<svg width="143" height="31" viewBox="0 0 143 31" fill="none" xmlns="http://www.w3.org/2000/svg">
<path d="M14.5303 30.2196C11.6877 30.2196 9.17628 29.5987 6.99605 28.3568C4.81582 27.0873 3.10476 25.3348 1.86285 23.0994C0.620951 20.864 0 18.2974 0 15.3996V14.8614C0 11.9361 0.620951 9.35566 1.86285 7.12024C3.13235 4.88481 4.88481 3.14616 7.12024 1.90426C9.35566 0.634757 11.9223 0 14.82 0C16.7519 0 18.5319 0.331167 20.1602 0.993515C21.7885 1.62827 23.2374 2.539 24.5069 3.72571L21.5263 6.74767C20.6156 5.83695 19.5807 5.17459 18.4216 4.76063C17.29 4.31906 16.1033 4.09827 14.8614 4.09827C12.8192 4.09827 11.0115 4.56744 9.43846 5.50577C7.86539 6.4165 6.62348 7.67219 5.71275 9.27287C4.82962 10.8735 4.38805 12.7364 4.38805 14.8614V15.3996C4.38805 17.5246 4.82962 19.3875 5.71275 20.9881C6.59589 22.5888 7.81018 23.8583 9.35566 24.7966C10.9011 25.7074 12.6674 26.1627 14.6545 26.1627C16.0343 26.1627 17.2762 25.9144 18.3802 25.4176C19.5117 24.8932 20.45 24.1895 21.1951 23.3064C21.9679 22.3956 22.5198 21.3469 22.851 20.1602C23.2098 18.9735 23.3064 17.704 23.1408 16.3517L25.0036 17.5936H15.9377V14.0749H27.4046C27.6806 16.4207 27.5702 18.5733 27.0735 20.5328C26.6043 22.4922 25.7902 24.2033 24.6311 25.666C23.4996 27.1011 22.0783 28.2188 20.3672 29.0191C18.6837 29.8195 16.7381 30.2196 14.5303 30.2196ZM31.6387 29.5987V9.56266H35.5714V15.027L35.0332 14.9856C35.1712 13.5505 35.5162 12.4328 36.0682 11.6325C36.6201 10.8322 37.3239 10.2664 38.1794 9.93522C39.0625 9.60405 40.0146 9.43846 41.0358 9.43846H42.6916V13.4539H40.7046C39.1039 13.4539 37.862 13.8403 36.9789 14.6131C36.1234 15.3582 35.6956 16.4897 35.6956 18.0076V29.5987H31.6387ZM54.364 30.0126C52.4322 30.0126 50.6935 29.5711 49.148 28.688C47.6025 27.8048 46.3882 26.5905 45.5051 25.045C44.622 23.4996 44.1804 21.7195 44.1804 19.7049V19.3323C44.1804 17.3452 44.622 15.5928 45.5051 14.0749C46.3882 12.5294 47.6025 11.3289 49.148 10.4734C50.6935 9.59025 52.4322 9.14869 54.364 9.14869C56.2959 9.14869 58.0207 9.57644 59.5386 10.432C61.0565 11.2875 62.257 12.488 63.1401 14.0335C64.0232 15.5514 64.4648 17.3038 64.4648 19.2909V19.7049C64.4648 21.7195 64.0232 23.4996 63.1401 25.045C62.257 26.5905 61.0565 27.8048 59.5386 28.688C58.0207 29.5711 56.2959 30.0126 54.364 30.0126ZM54.364 26.4111C55.5507 26.4111 56.5994 26.1352 57.5102 25.5832C58.4209 25.0036 59.1246 24.2033 59.6214 23.1822C60.1458 22.1611 60.4079 21.002 60.4079 19.7049V19.2909C60.4079 17.9938 60.1458 16.8623 59.6214 15.8963C59.1246 14.9028 58.4209 14.1301 57.5102 13.5781C56.5994 13.0262 55.5507 12.7502 54.364 12.7502C53.1773 12.7502 52.1286 13.04 51.2178 13.6195C50.3071 14.1715 49.5896 14.9442 49.0652 15.9377C48.5409 16.9037 48.2787 18.0352 48.2787 19.3323V19.7049C48.2787 21.002 48.5409 22.1611 49.0652 23.1822C49.5896 24.2033 50.3071 25.0036 51.2178 25.5832C52.1286 26.1352 53.1773 26.4111 54.364 26.4111ZM77.8921 30.0126C75.9603 30.0126 74.2216 29.5711 72.6761 28.688C71.1307 27.8048 69.9164 26.5905 69.0332 25.045C68.1501 23.4996 67.7085 21.7195 67.7085 19.7049V19.3323C67.7085 17.3452 68.1501 15.5928 69.0332 14.0749C69.9164 12.5294 71.1307 11.3289 72.6761 10.4734C74.2216 9.59025 75.9603 9.14869 77.8921 9.14869C79.824 9.14869 81.5488 9.57644 83.0667 10.432C84.5846 11.2875 85.7851 12.488 86.6682 14.0335C87.5514 15.5514 87.9929 17.3038 87.9929 19.2909V19.7049C87.9929 21.7195 87.5514 23.4996 86.6682 25.045C85.7851 26.5905 84.5846 27.8048 83.0667 28.688C81.5488 29.5711 79.824 30.0126 77.8921 30.0126ZM77.8921 26.4111C79.0788 26.4111 80.1275 26.1352 81.0383 25.5832C81.949 25.0036 82.6527 24.2033 83.1495 23.1822C83.6739 22.1611 83.9361 21.002 83.9361 19.7049V19.2909C83.9361 17.9938 83.6739 16.8623 83.1495 15.8963C82.6527 14.9028 81.949 14.1301 81.0383 13.5781C80.1275 13.0262 79.0788 12.7502 77.8921 12.7502C76.7054 12.7502 75.6567 13.04 74.746 13.6195C73.8353 14.1715 73.1177 14.9442 72.5933 15.9377C72.069 16.9037 71.8068 18.0352 71.8068 19.3323V19.7049C71.8068 21.002 72.069 22.1611 72.5933 23.1822C73.1177 24.2033 73.8353 25.0036 74.746 25.5832C75.6567 26.1352 76.7054 26.4111 77.8921 26.4111ZM97.4148 29.5987L89.5494 9.56266H93.7719L100.313 26.9079H98.7395L105.28 9.56266H109.503L101.679 29.5987H97.4148ZM112.816 29.5987V9.56266H116.748V15.027L116.21 14.9856C116.348 13.5505 116.693 12.4328 117.245 11.6325C117.797 10.8322 118.501 10.2664 119.356 9.93522C120.24 9.60405 121.192 9.43846 122.213 9.43846H123.869V13.4539H121.882C120.281 13.4539 119.039 13.8403 118.156 14.6131C117.3 15.3582 116.873 16.4897 116.873 18.0076V29.5987H112.816ZM138.726 29.5987L138.685 23.3892L138.229 21.9403V16.8485C138.229 15.3858 137.829 14.3371 137.029 13.7023C136.228 13.0676 135.18 12.7502 133.883 12.7502C132.834 12.7502 131.758 12.9572 130.654 13.3712C129.55 13.7575 128.598 14.3371 127.797 15.1098L125.934 12.2948C126.845 11.3013 128.032 10.5286 129.495 9.97662C130.985 9.42467 132.53 9.14869 134.131 9.14869C135.732 9.14869 137.139 9.43846 138.353 10.018C139.568 10.57 140.52 11.3979 141.21 12.5018C141.9 13.6057 142.245 14.9856 142.245 16.6415V23.0994C142.245 24.2033 142.245 25.2934 142.245 26.3697C142.272 27.446 142.314 28.5224 142.369 29.5987H138.726ZM132.765 30.0126C130.502 30.0126 128.68 29.4607 127.301 28.3568C125.948 27.2529 125.272 25.8178 125.272 24.0515C125.272 22.8648 125.617 21.8161 126.307 20.9054C126.997 19.967 127.935 19.2357 129.122 18.7113C130.336 18.1594 131.73 17.8834 133.303 17.8834C135.732 17.8834 137.581 18.4216 138.85 19.4979C140.12 20.5742 140.754 21.9955 140.754 23.7617H139.802C139.802 25.7212 139.195 27.2529 137.981 28.3568C136.767 29.4607 135.028 30.0126 132.765 30.0126ZM133.883 26.9907C135.235 26.9907 136.297 26.7147 137.07 26.1627C137.843 25.5832 138.229 24.8381 138.229 23.9273C138.229 23.0442 137.843 22.3267 137.07 21.7747C136.297 21.1951 135.221 20.9054 133.841 20.9054C132.489 20.9054 131.399 21.1951 130.571 21.7747C129.771 22.3267 129.37 23.0442 129.37 23.9273C129.37 24.8381 129.784 25.5832 130.612 26.1627C131.44 26.7147 132.53 26.9907 133.883 26.9907Z" fill="white"/>
</svg>
