<svg width="11" height="11" viewBox="0 0 11 11" fill="none" xmlns="http://www.w3.org/2000/svg">
<path d="M4.88889 11V6.12639C4.23704 6.12639 3.61065 6.00162 3.00972 5.75208C2.4088 5.50255 1.87917 5.14861 1.42083 4.69028C0.9625 4.23194 0.611111 3.70231 0.366667 3.10139C0.122222 2.50046 0 1.87407 0 1.22222V0H1.22222C1.86389 0 2.48519 0.124769 3.08611 0.374306C3.68704 0.623843 4.21667 0.977778 4.675 1.43611C4.99074 1.75185 5.25301 2.09815 5.46181 2.475C5.6706 2.85185 5.83102 3.25417 5.94306 3.68194C5.99398 3.61065 6.05 3.5419 6.11111 3.47569C6.17222 3.40949 6.23843 3.34074 6.30972 3.26944C6.76806 2.81111 7.29768 2.45718 7.89861 2.20764C8.49954 1.9581 9.12593 1.83333 9.77778 1.83333H11V3.05556C11 3.70741 10.8752 4.3338 10.6257 4.93472C10.3762 5.53565 10.0222 6.06528 9.56389 6.52361C9.10556 6.98194 8.57847 7.33333 7.98264 7.57778C7.38681 7.82222 6.76296 7.94444 6.11111 7.94444V11H4.88889ZM4.88889 4.88889C4.88889 4.4 4.79468 3.93403 4.60625 3.49097C4.41782 3.04792 4.15046 2.65324 3.80417 2.30694C3.45787 1.96065 3.06319 1.69329 2.62014 1.50486C2.17708 1.31644 1.71111 1.22222 1.22222 1.22222C1.22222 1.71111 1.31389 2.17963 1.49722 2.62778C1.68056 3.07593 1.94537 3.47315 2.29167 3.81944C2.63796 4.16574 3.03519 4.43056 3.48333 4.61389C3.93148 4.79722 4.4 4.88889 4.88889 4.88889ZM6.11111 6.72222C6.6 6.72222 7.06597 6.63056 7.50903 6.44722C7.95208 6.26389 8.34676 5.99907 8.69306 5.65278C9.03935 5.30648 9.30671 4.90926 9.49514 4.46111C9.68356 4.01296 9.77778 3.54444 9.77778 3.05556C9.28889 3.05556 8.82037 3.14977 8.37222 3.33819C7.92407 3.52662 7.52685 3.79398 7.18056 4.14028C6.83426 4.48657 6.56944 4.88125 6.38611 5.32431C6.20278 5.76736 6.11111 6.23333 6.11111 6.72222Z" fill="#72DEEF"/>
</svg>
