<svg width="30" height="30" viewBox="0 0 30 30" fill="none" xmlns="http://www.w3.org/2000/svg">
<path d="M3.33333 30C2.41667 30 1.63194 29.6736 0.979167 29.0208C0.326389 28.3681 0 27.5833 0 26.6667V3.33333C0 2.41667 0.326389 1.63194 0.979167 0.979167C1.63194 0.326389 2.41667 0 3.33333 0H26.6667C27.5833 0 28.3681 0.326389 29.0208 0.979167C29.6736 1.63194 30 2.41667 30 3.33333V26.6667C30 27.5833 29.6736 28.3681 29.0208 29.0208C28.3681 29.6736 27.5833 30 26.6667 30H3.33333ZM3.33333 26.6667H8.75V19.1667H8.33333C7.86111 19.1667 7.46528 19.0069 7.14583 18.6875C6.82639 18.3681 6.66667 17.9722 6.66667 17.5V3.33333H3.33333V26.6667ZM21.25 26.6667H26.6667V3.33333H23.3333V17.5C23.3333 17.9722 23.1736 18.3681 22.8542 18.6875C22.5347 19.0069 22.1389 19.1667 21.6667 19.1667H21.25V26.6667ZM11.25 26.6667H18.75V19.1667H18.3333C17.8611 19.1667 17.4653 19.0069 17.1458 18.6875C16.8264 18.3681 16.6667 17.9722 16.6667 17.5V3.33333H13.3333V17.5C13.3333 17.9722 13.1736 18.3681 12.8542 18.6875C12.5347 19.0069 12.1389 19.1667 11.6667 19.1667H11.25V26.6667Z" fill="#72DEEF"/>
</svg>
