<svg width="18" height="18" viewBox="0 0 18 18" fill="none" xmlns="http://www.w3.org/2000/svg">
<circle cx="9" cy="9" r="9" fill="#D9D9D9"/>
<path d="M9 3V15" stroke="#27343D" stroke-linecap="round" stroke-linejoin="round"/>
<path d="M11.5 5H7.75C7.28587 5 6.84075 5.21071 6.51256 5.58579C6.18437 5.96086 6 6.46957 6 7C6 7.53043 6.18437 8.03914 6.51256 8.41421C6.84075 8.78929 7.28587 9 7.75 9H10.25C10.7141 9 11.1592 9.21071 11.4874 9.58579C11.8156 9.96086 12 10.4696 12 11C12 11.5304 11.8156 12.0391 11.4874 12.4142C11.1592 12.7893 10.7141 13 10.25 13H6" stroke="#27343D" stroke-linecap="round" stroke-linejoin="round"/>
</svg>
