<svg width="342" height="294" viewBox="0 0 342 294" fill="none" xmlns="http://www.w3.org/2000/svg">
<g filter="url(#filter0_d_96_3767)">
<path d="M193.007 243.171C201.236 250.654 201.855 263.42 194.388 271.667L189.934 276.585C182.466 284.831 169.727 285.452 161.497 277.969L156.589 273.506C148.359 266.023 147.741 253.256 155.208 245.01L173.189 225.152L193.007 243.171ZM261.002 236.026C270.24 242.217 272.723 254.753 266.547 264.009L262.863 269.529C256.687 278.785 244.176 281.275 234.938 275.085L229.429 271.394C220.19 265.203 217.707 252.666 223.884 243.41L238.757 221.121L261.002 236.026ZM160.841 245.212C153.652 253.152 154.247 265.442 162.17 272.646C170.093 279.851 182.359 279.254 189.549 271.314C196.738 263.375 196.142 251.083 188.219 243.879L173.865 230.828L160.841 245.212ZM129.784 240.82C136.42 249.751 134.573 262.398 125.659 269.049L120.343 273.016C111.429 279.666 98.809 277.813 92.1729 268.882L88.2158 263.556C81.5798 254.624 83.4262 241.979 92.3398 235.328L113.804 219.313L129.784 240.82ZM229.472 242.805C223.525 251.717 225.916 263.786 234.81 269.746C243.704 275.706 255.748 273.308 261.695 264.396C267.642 255.485 265.25 243.416 256.356 237.456L240.244 226.66L229.472 242.805ZM97.8379 236.618C89.2563 243.021 87.478 255.197 93.8672 263.796C100.257 272.395 112.406 274.178 120.987 267.775C129.569 261.373 131.348 249.197 124.959 240.598L113.384 225.02L97.8379 236.618ZM169.819 10.1992C201.407 10.1994 227.242 34.7481 229.409 65.8369C258.315 67.0505 281.903 88.8359 285.994 116.941C298.773 119.317 309.495 122.541 317.233 126.984C325.547 131.758 330.984 138.317 330.984 147.105C330.984 155.728 325.709 164.662 317.377 172.961C308.948 181.357 296.918 189.587 282.291 196.825C253.023 211.309 212.872 222.063 169.008 222.063C125.14 222.063 85.7674 211.308 57.2734 196.808C43.034 189.561 31.3964 181.321 23.2656 172.914C15.217 164.592 10.1993 155.672 10.1992 147.105C10.1994 138.188 15.5901 131.53 23.9609 126.692C31.7571 122.187 42.5858 118.958 55.5381 116.606C60.3133 89.9834 82.6453 69.4662 110.108 67.5361C111.452 35.6444 137.923 10.1994 169.819 10.1992ZM169.837 16.5488C139.579 16.5488 114.607 41.263 114.502 71.8047C87.5346 72.6512 65.444 92.8324 61.5508 118.974C48.3945 121.256 37.668 124.396 30.1699 128.73C22.5125 133.157 18.0743 138.928 18.0742 146.385C18.0743 153.755 22.4259 161.803 30.0234 169.66C37.6443 177.542 48.6468 185.356 62.2344 192.271C89.4143 206.103 127.07 216.404 169.071 216.404C211.072 216.404 249.489 206.104 277.429 192.276C291.397 185.364 302.781 177.552 310.689 169.674C318.57 161.823 323.13 153.771 323.13 146.385C323.13 139.072 318.669 133.391 311.043 129.015C303.576 124.729 292.92 121.59 279.911 119.287C276.753 91.74 253.455 70.3297 225.134 70.2314C224.207 40.4276 199.822 16.5489 169.837 16.5488ZM167.552 176.061C175.673 176.061 183.074 177.362 188.481 179.501C191.182 180.569 193.436 181.867 195.03 183.357C196.626 184.85 197.633 186.608 197.633 188.563C197.633 189.529 197.382 190.387 196.771 191.038C196.174 191.675 195.356 191.98 194.498 192.111C192.829 192.367 190.53 192.031 187.93 191.544C182.602 190.546 175.46 188.797 167.552 188.797C159.644 188.797 152.502 190.546 147.175 191.544C144.575 192.031 142.274 192.367 140.605 192.111C139.747 191.98 138.929 191.675 138.332 191.038C137.722 190.387 137.471 189.529 137.471 188.563C137.471 186.608 138.478 184.85 140.074 183.357C141.669 181.867 143.922 180.569 146.622 179.501C152.029 177.362 159.43 176.061 167.552 176.061ZM167.552 178.061C159.618 178.061 152.478 179.336 147.358 181.361C144.796 182.375 142.789 183.557 141.439 184.818C140.092 186.078 139.471 187.344 139.471 188.563C139.471 189.185 139.626 189.495 139.791 189.67C139.969 189.859 140.295 190.041 140.908 190.135C142.183 190.33 144.144 190.077 146.807 189.578C152.005 188.605 159.404 186.797 167.552 186.797C175.699 186.797 183.099 188.605 188.298 189.578C190.96 190.077 192.92 190.33 194.195 190.135C194.809 190.041 195.135 189.859 195.312 189.67C195.477 189.495 195.633 189.185 195.633 188.563C195.633 187.344 195.011 186.078 193.664 184.818C192.315 183.557 190.308 182.375 187.745 181.361C182.626 179.336 175.486 178.061 167.552 178.061ZM136.495 158.425L135.734 159.074L123.115 144.277L123.755 143.485L136.495 158.425ZM217.438 158.425L216.678 159.074L204.059 144.277L204.698 143.485L217.438 158.425ZM123.115 144.277L111.684 158.429L110.906 157.799L122.455 143.503L123.115 144.277ZM204.059 144.277L192.627 158.429L191.85 157.799L203.397 143.503L204.059 144.277ZM123.094 142.712L122.455 143.503L111.972 131.211L112.732 130.562L123.094 142.712ZM204.037 142.711L203.397 143.503L192.915 131.211L193.676 130.562L204.037 142.711ZM215.641 129.941L204.698 143.485L204.037 142.711L214.862 129.312L215.641 129.941ZM134.697 129.941L123.755 143.485L123.094 142.712L133.92 129.312L134.697 129.941ZM124.69 93.2363C129.512 93.2364 136.169 94.7821 141.637 97.5137C144.375 98.8819 146.87 100.575 148.691 102.569C150.518 104.569 151.71 106.924 151.71 109.574C151.71 110.867 151.423 111.963 150.707 112.734C149.977 113.52 148.974 113.786 147.957 113.789C146.949 113.792 145.811 113.543 144.63 113.17C143.438 112.794 142.139 112.271 140.792 111.688C138.047 110.497 135.182 109.09 132.308 107.931C129.445 106.776 126.81 105.973 124.69 105.973C122.584 105.973 120.145 106.769 117.586 107.916C115.023 109.064 112.518 110.475 110.173 111.662C109.02 112.246 107.909 112.772 106.893 113.152C105.89 113.528 104.9 113.793 104.006 113.789C103.074 113.785 102.171 113.483 101.542 112.661C100.956 111.894 100.731 110.829 100.731 109.574C100.732 104.381 104.524 100.281 109.218 97.5439C113.943 94.7887 119.856 93.2363 124.69 93.2363ZM205.809 93.2363C210.63 93.2364 217.287 94.7821 222.755 97.5137C225.494 98.8819 227.988 100.575 229.81 102.569C231.636 104.569 232.828 106.924 232.828 109.574C232.828 110.867 232.541 111.963 231.825 112.734C231.095 113.52 230.092 113.786 229.075 113.789C228.068 113.792 226.929 113.543 225.748 113.17C224.556 112.794 223.257 112.271 221.91 111.688C219.165 110.497 216.3 109.09 213.426 107.931C210.563 106.776 207.928 105.973 205.809 105.973C203.702 105.973 201.263 106.769 198.704 107.916C196.141 109.064 193.636 110.475 191.291 111.662C190.138 112.246 189.027 112.772 188.011 113.152C187.008 113.528 186.018 113.793 185.124 113.789C184.192 113.785 183.289 113.483 182.66 112.661C182.074 111.894 181.85 110.829 181.85 109.574C181.85 104.381 185.642 100.281 190.336 97.5439C195.061 94.7887 200.974 93.2363 205.809 93.2363ZM124.69 95.2363C120.219 95.2363 114.652 96.6905 110.225 99.2725C105.766 101.872 102.732 105.443 102.731 109.574C102.731 110.649 102.935 111.19 103.131 111.446C103.285 111.647 103.521 111.787 104.014 111.789C104.545 111.791 105.267 111.625 106.191 111.279C107.102 110.938 108.135 110.452 109.27 109.878C111.501 108.749 114.154 107.262 116.769 106.091C119.386 104.918 122.145 103.973 124.69 103.973C127.224 103.973 130.167 104.91 133.056 106.075C135.932 107.235 138.991 108.727 141.588 109.853C142.912 110.427 144.138 110.917 145.232 111.263C146.337 111.611 147.246 111.791 147.95 111.789C148.645 111.787 149.021 111.61 149.241 111.373C149.475 111.121 149.71 110.612 149.71 109.574C149.71 107.563 148.813 105.668 147.215 103.918C145.612 102.163 143.346 100.603 140.743 99.3027C135.528 96.6971 129.175 95.2364 124.69 95.2363ZM205.809 95.2363C201.337 95.2363 195.77 96.6905 191.343 99.2725C186.885 101.872 183.85 105.443 183.85 109.574C183.85 110.649 184.053 111.19 184.249 111.446C184.403 111.647 184.639 111.787 185.132 111.789C185.663 111.791 186.385 111.625 187.31 111.279C188.22 110.938 189.253 110.452 190.388 109.878C192.619 108.749 195.272 107.262 197.886 106.091C200.504 104.918 203.263 103.973 205.809 103.973C208.342 103.973 211.286 104.91 214.174 106.075C217.05 107.235 220.109 108.727 222.706 109.853C224.03 110.427 225.257 110.917 226.351 111.263C227.455 111.611 228.364 111.791 229.068 111.789C229.763 111.787 230.139 111.61 230.359 111.373C230.593 111.121 230.828 110.612 230.828 109.574C230.828 107.563 229.931 105.668 228.333 103.918C226.73 102.163 224.464 100.603 221.861 99.3027C216.646 96.6971 210.293 95.2364 205.809 95.2363Z" fill="#72DEEF" fill-opacity="0.56" shape-rendering="crispEdges"/>
</g>
<defs>
<filter id="filter0_d_96_3767" x="-0.000781059" y="-0.000781059" width="341.185" height="293.4" filterUnits="userSpaceOnUse" color-interpolation-filters="sRGB">
<feFlood flood-opacity="0" result="BackgroundImageFix"/>
<feColorMatrix in="SourceAlpha" type="matrix" values="0 0 0 0 0 0 0 0 0 0 0 0 0 0 0 0 0 0 127 0" result="hardAlpha"/>
<feOffset/>
<feGaussianBlur stdDeviation="5.1"/>
<feComposite in2="hardAlpha" operator="out"/>
<feColorMatrix type="matrix" values="0 0 0 0 0.662745 0 0 0 0 0.560784 0 0 0 0 0.858824 0 0 0 0.5 0"/>
<feBlend mode="normal" in2="BackgroundImageFix" result="effect1_dropShadow_96_3767"/>
<feBlend mode="normal" in="SourceGraphic" in2="effect1_dropShadow_96_3767" result="shape"/>
</filter>
</defs>
</svg>
