<svg width="38" height="38" viewBox="0 0 38 38" fill="none" xmlns="http://www.w3.org/2000/svg">
<mask id="mask0_116_443" style="mask-type:luminance" maskUnits="userSpaceOnUse" x="0" y="7" width="14" height="24">
<path d="M0 7.77271H13.2802V30.2449H0V7.77271Z" fill="white"/>
</mask>
<g mask="url(#mask0_116_443)">
<mask id="mask1_116_443" style="mask-type:luminance" maskUnits="userSpaceOnUse" x="0" y="0" width="38" height="39">
<path d="M37.5582 15.5537H19.4419V22.892H29.8699C28.8977 27.5539 24.8326 30.2302 19.4419 30.2302C13.0791 30.2302 7.95352 25.223 7.95352 19.007C7.95352 12.7911 13.0791 7.78376 19.4419 7.78376C22.1814 7.78376 24.6559 8.73346 26.6 10.2874L32.2558 4.7622C28.8093 1.82687 24.3908 0.013916 19.4419 0.013916C8.66047 0.013916 0 8.47445 0 19.007C0 29.5396 8.66047 38.0001 19.4419 38.0001C29.1628 38.0001 38 31.0935 38 19.007C38 17.8847 37.8233 16.676 37.5582 15.5537Z" fill="white"/>
</mask>
<g mask="url(#mask1_116_443)">
<path d="M-1.76721 30.2302V7.78369L13.256 19.0069L-1.76721 30.2302Z" fill="#FBBC05"/>
</g>
</g>
<mask id="mask2_116_443" style="mask-type:luminance" maskUnits="userSpaceOnUse" x="0" y="0" width="38" height="20">
<path d="M0 0H38V19.0088H0V0Z" fill="white"/>
</mask>
<g mask="url(#mask2_116_443)">
<mask id="mask3_116_443" style="mask-type:luminance" maskUnits="userSpaceOnUse" x="0" y="0" width="38" height="38">
<path d="M37.5582 15.5535H19.4419V22.8918H29.8699C28.8977 27.5537 24.8326 30.2301 19.4419 30.2301C13.0791 30.2301 7.95352 25.2228 7.95352 19.0068C7.95352 12.7909 13.0791 7.78358 19.4419 7.78358C22.1814 7.78358 24.6559 8.73328 26.6 10.2872L32.2558 4.76202C28.8093 1.82669 24.3908 0.0137329 19.4419 0.0137329C8.66047 0.0137329 0 8.47427 0 19.0068C0 29.5394 8.66047 37.9999 19.4419 37.9999C29.1628 37.9999 38 31.0933 38 19.0068C38 17.8845 37.8233 16.6758 37.5582 15.5535Z" fill="white"/>
</mask>
<g mask="url(#mask3_116_443)">
<path d="M-1.76721 7.78374L13.256 19.0069L19.4421 13.7407L40.6513 10.3737V-1.71283H-1.76721V7.78374Z" fill="#EA4335"/>
</g>
</g>
<mask id="mask4_116_443" style="mask-type:luminance" maskUnits="userSpaceOnUse" x="0" y="0" width="38" height="38">
<path d="M0 0H38V38H0V0Z" fill="white"/>
</mask>
<g mask="url(#mask4_116_443)">
<mask id="mask5_116_443" style="mask-type:luminance" maskUnits="userSpaceOnUse" x="0" y="0" width="38" height="38">
<path d="M37.5582 15.5535H19.4419V22.8918H29.8699C28.8977 27.5537 24.8326 30.2301 19.4419 30.2301C13.0791 30.2301 7.95352 25.2228 7.95352 19.0068C7.95352 12.7909 13.0791 7.78358 19.4419 7.78358C22.1814 7.78358 24.6559 8.73328 26.6 10.2872L32.2558 4.76202C28.8093 1.82669 24.3908 0.0137329 19.4419 0.0137329C8.66047 0.0137329 0 8.47427 0 19.0068C0 29.5394 8.66047 37.9999 19.4419 37.9999C29.1628 37.9999 38 31.0933 38 19.0068C38 17.8845 37.8233 16.6758 37.5582 15.5535Z" fill="white"/>
</mask>
<g mask="url(#mask5_116_443)">
<path d="M-1.76721 30.2302L24.7444 10.3737L31.7258 11.2371L40.6513 -1.71283V39.7268H-1.76721V30.2302Z" fill="#34A853"/>
</g>
</g>
<mask id="mask6_116_443" style="mask-type:luminance" maskUnits="userSpaceOnUse" x="9" y="7" width="29" height="31">
<path d="M9.70764 7.77271H37.9994V38H9.70764V7.77271Z" fill="white"/>
</mask>
<g mask="url(#mask6_116_443)">
<mask id="mask7_116_443" style="mask-type:luminance" maskUnits="userSpaceOnUse" x="-1" y="0" width="39" height="39">
<path d="M37.5578 15.5537H19.4415V22.892H29.8695C28.8973 27.5539 24.8322 30.2302 19.4415 30.2302C13.0788 30.2302 7.95315 25.223 7.95315 19.007C7.95315 12.7911 13.0788 7.78376 19.4415 7.78376C22.1811 7.78376 24.6555 8.73346 26.5996 10.2874L32.2554 4.7622C28.809 1.82687 24.3904 0.013916 19.4415 0.013916C8.6601 0.013916 -0.000366211 8.47445 -0.000366211 19.007C-0.000366211 29.5396 8.6601 38.0001 19.4415 38.0001C29.1624 38.0001 37.9996 31.0935 37.9996 19.007C37.9996 17.8847 37.8229 16.676 37.5578 15.5537Z" fill="white"/>
</mask>
<g mask="url(#mask7_116_443)">
<path d="M40.6507 39.7267L13.2554 19.0069L9.72058 16.417L40.6507 7.78369V39.7267Z" fill="#4285F4"/>
</g>
</g>
</svg>
