<svg width="240" height="83" viewBox="0 0 240 83" fill="none" xmlns="http://www.w3.org/2000/svg">
<path d="M79.1587 49.7222C75.4156 67.5737 59.7554 80.967 41.0047 80.967C19.463 80.967 2 63.2896 2 41.4835C2 19.6773 19.463 2 41.0047 2C51.0999 2 60.299 5.88221 67.2254 12.2523" stroke="url(#paint0_linear_39_17)" stroke-width="4" stroke-linecap="round"/>
<path d="M61.083 47.3128H77.8212C77.8212 47.3128 79.7162 47.0649 79.1588 49.7221" stroke="url(#paint1_linear_39_17)" stroke-width="4" stroke-linecap="round"/>
<path d="M61.3134 17.2926C55.8466 12.6016 48.7712 9.77228 41.0432 9.77228C23.7208 9.77228 9.67822 23.9873 9.67822 41.5223C9.67822 59.0575 23.7208 73.2723 41.0432 73.2723C54.2703 73.2723 65.5847 64.9839 70.1954 53.2585" stroke="url(#paint2_linear_39_17)" stroke-width="4" stroke-linecap="round"/>
<path d="M61.2754 53.9968C57.1162 60.8947 49.6108 65.4998 41.0429 65.4998C27.9609 65.4998 17.356 54.7647 17.356 41.5222C17.356 28.2797 27.9609 17.5445 41.0429 17.5445C46.8475 17.5445 52.1646 19.6581 56.2839 23.1665" stroke="url(#paint3_linear_39_17)" stroke-width="4" stroke-linecap="round"/>
<path d="M52.2726 40.401C53.0657 40.8647 53.0657 42.0241 52.2726 42.4878L35.5151 52.2814C34.7218 52.7451 33.73 52.1655 33.73 51.2381V31.6507C33.73 30.7233 34.7218 30.1437 35.5151 30.6074L52.2726 40.401Z" fill="white" stroke="white" stroke-linejoin="round"/>
<path d="M112.161 56.5921C109.319 56.5921 106.807 55.9711 104.627 54.7292C102.447 53.4597 100.736 51.7073 99.4937 49.4718C98.2518 47.2364 97.6309 44.6698 97.6309 41.772V41.2339C97.6309 38.3085 98.2518 35.7281 99.4937 33.4927C100.763 31.2572 102.516 29.5186 104.751 28.2767C106.987 27.0072 109.553 26.3724 112.451 26.3724C114.383 26.3724 116.163 26.7036 117.791 27.366C119.419 28.0007 120.868 28.9114 122.138 30.0981L119.157 33.1201C118.246 32.2094 117.212 31.547 116.052 31.1331C114.921 30.6915 113.734 30.4707 112.492 30.4707C110.45 30.4707 108.642 30.9399 107.069 31.8782C105.496 32.7889 104.254 34.0446 103.344 35.6453C102.46 37.246 102.019 39.1088 102.019 41.2339V41.772C102.019 43.8971 102.46 45.7599 103.344 47.3606C104.227 48.9613 105.441 50.2308 106.987 51.1691C108.532 52.0798 110.298 52.5352 112.285 52.5352C113.665 52.5352 114.907 52.2868 116.011 51.79C117.143 51.2657 118.081 50.5619 118.826 49.6788C119.599 48.7681 120.151 47.7194 120.482 46.5326C120.841 45.3459 120.937 44.0764 120.772 42.7242L122.634 43.9661H113.569V40.4473H125.036C125.311 42.7931 125.201 44.9458 124.704 46.9052C124.235 48.8647 123.421 50.5757 122.262 52.0384C121.13 53.4735 119.709 54.5912 117.998 55.3916C116.315 56.1919 114.369 56.5921 112.161 56.5921ZM129.27 55.9711V35.9351H133.202V41.3995L132.664 41.3581C132.802 39.923 133.147 38.8053 133.699 38.0049C134.251 37.2046 134.955 36.6388 135.81 36.3077C136.693 35.9765 137.646 35.8109 138.667 35.8109H140.322V39.8264H138.335C136.735 39.8264 135.493 40.2128 134.61 40.9855C133.754 41.7306 133.326 42.8621 133.326 44.38V55.9711H129.27ZM151.995 56.3851C150.063 56.3851 148.324 55.9435 146.779 55.0604C145.233 54.1773 144.019 52.9629 143.136 51.4175C142.253 49.872 141.811 48.0919 141.811 46.0773V45.7047C141.811 43.7177 142.253 41.9652 143.136 40.4473C144.019 38.9019 145.233 37.7014 146.779 36.8458C148.324 35.9627 150.063 35.5211 151.995 35.5211C153.927 35.5211 155.652 35.9489 157.169 36.8044C158.687 37.6599 159.888 38.8604 160.771 40.4059C161.654 41.9238 162.096 43.6763 162.096 45.6633V46.0773C162.096 48.0919 161.654 49.872 160.771 51.4175C159.888 52.9629 158.687 54.1773 157.169 55.0604C155.652 55.9435 153.927 56.3851 151.995 56.3851ZM151.995 52.7836C153.182 52.7836 154.23 52.5076 155.141 51.9556C156.052 51.3761 156.755 50.5757 157.252 49.5546C157.777 48.5335 158.039 47.3744 158.039 46.0773V45.6633C158.039 44.3662 157.777 43.2347 157.252 42.2688C156.755 41.2753 156.052 40.5025 155.141 39.9506C154.23 39.3986 153.182 39.1226 151.995 39.1226C150.808 39.1226 149.759 39.4124 148.849 39.992C147.938 40.5439 147.22 41.3167 146.696 42.3102C146.172 43.2761 145.91 44.4076 145.91 45.7047V46.0773C145.91 47.3744 146.172 48.5335 146.696 49.5546C147.22 50.5757 147.938 51.3761 148.849 51.9556C149.759 52.5076 150.808 52.7836 151.995 52.7836ZM175.523 56.3851C173.591 56.3851 171.852 55.9435 170.307 55.0604C168.762 54.1773 167.547 52.9629 166.664 51.4175C165.781 49.872 165.339 48.0919 165.339 46.0773V45.7047C165.339 43.7177 165.781 41.9652 166.664 40.4473C167.547 38.9019 168.762 37.7014 170.307 36.8458C171.852 35.9627 173.591 35.5211 175.523 35.5211C177.455 35.5211 179.18 35.9489 180.698 36.8044C182.215 37.6599 183.416 38.8604 184.299 40.4059C185.182 41.9238 185.624 43.6763 185.624 45.6633V46.0773C185.624 48.0919 185.182 49.872 184.299 51.4175C183.416 52.9629 182.215 54.1773 180.698 55.0604C179.18 55.9435 177.455 56.3851 175.523 56.3851ZM175.523 52.7836C176.71 52.7836 177.758 52.5076 178.669 51.9556C179.58 51.3761 180.284 50.5757 180.78 49.5546C181.305 48.5335 181.567 47.3744 181.567 46.0773V45.6633C181.567 44.3662 181.305 43.2347 180.78 42.2688C180.284 41.2753 179.58 40.5025 178.669 39.9506C177.758 39.3986 176.71 39.1226 175.523 39.1226C174.336 39.1226 173.288 39.4124 172.377 39.992C171.466 40.5439 170.749 41.3167 170.224 42.3102C169.7 43.2761 169.438 44.4076 169.438 45.7047V46.0773C169.438 47.3744 169.7 48.5335 170.224 49.5546C170.749 50.5757 171.466 51.3761 172.377 51.9556C173.288 52.5076 174.336 52.7836 175.523 52.7836ZM195.046 55.9711L187.18 35.9351H191.403L197.943 53.2803H196.37L202.911 35.9351H207.134L199.31 55.9711H195.046ZM210.447 55.9711V35.9351H214.379V41.3995L213.841 41.3581C213.979 39.923 214.324 38.8053 214.876 38.0049C215.428 37.2046 216.132 36.6388 216.987 36.3077C217.87 35.9765 218.823 35.8109 219.844 35.8109H221.5V39.8264H219.513C217.912 39.8264 216.67 40.2128 215.787 40.9855C214.931 41.7306 214.504 42.8621 214.504 44.38V55.9711H210.447ZM236.357 55.9711L236.315 49.7616L235.86 48.3127V43.2209C235.86 41.7582 235.46 40.7095 234.66 40.0748C233.859 39.44 232.811 39.1226 231.513 39.1226C230.465 39.1226 229.388 39.3296 228.285 39.7436C227.181 40.13 226.228 40.7095 225.428 41.4823L223.565 38.6673C224.476 37.6737 225.663 36.901 227.125 36.3491C228.616 35.7971 230.161 35.5211 231.762 35.5211C233.363 35.5211 234.77 35.8109 235.984 36.3904C237.199 36.9424 238.151 37.7703 238.841 38.8743C239.531 39.9782 239.876 41.3581 239.876 43.0139V49.4718C239.876 50.5757 239.876 51.6658 239.876 52.7422C239.903 53.8185 239.945 54.8948 240 55.9711H236.357ZM230.396 56.3851C228.133 56.3851 226.311 55.8331 224.931 54.7292C223.579 53.6253 222.903 52.1902 222.903 50.424C222.903 49.2372 223.248 48.1885 223.938 47.2778C224.628 46.3395 225.566 45.6081 226.753 45.0838C227.967 44.5318 229.361 44.2558 230.934 44.2558C233.363 44.2558 235.212 44.794 236.481 45.8703C237.751 46.9466 238.385 48.3679 238.385 50.1342H237.433C237.433 52.0936 236.826 53.6253 235.612 54.7292C234.397 55.8331 232.659 56.3851 230.396 56.3851ZM231.513 53.3631C232.866 53.3631 233.928 53.0871 234.701 52.5352C235.474 51.9556 235.86 51.2105 235.86 50.2998C235.86 49.4166 235.474 48.6991 234.701 48.1471C233.928 47.5676 232.852 47.2778 231.472 47.2778C230.12 47.2778 229.03 47.5676 228.202 48.1471C227.401 48.6991 227.001 49.4166 227.001 50.2998C227.001 51.2105 227.415 51.9556 228.243 52.5352C229.071 53.0871 230.161 53.3631 231.513 53.3631Z" fill="white"/>
<defs>
<linearGradient id="paint0_linear_39_17" x1="62.5233" y1="75.2831" x2="10.9647" y2="2.59125" gradientUnits="userSpaceOnUse">
<stop stop-color="#57AEB8"/>
<stop offset="1" stop-color="#265B61"/>
</linearGradient>
<linearGradient id="paint1_linear_39_17" x1="62.5234" y1="75.2831" x2="10.9647" y2="2.59126" gradientUnits="userSpaceOnUse">
<stop stop-color="#57AEB8"/>
<stop offset="1" stop-color="#265B61"/>
</linearGradient>
<linearGradient id="paint2_linear_39_17" x1="58.3473" y1="68.7014" x2="16.887" y2="10.2477" gradientUnits="userSpaceOnUse">
<stop stop-color="#57AEB8"/>
<stop offset="1" stop-color="#265B61"/>
</linearGradient>
<linearGradient id="paint3_linear_39_17" x1="54.111" y1="62.0481" x2="22.8001" y2="17.9036" gradientUnits="userSpaceOnUse">
<stop stop-color="#57AEB8"/>
<stop offset="1" stop-color="#265B61"/>
</linearGradient>
</defs>
</svg>
