<svg width="22" height="23" viewBox="0 0 22 23" fill="none" xmlns="http://www.w3.org/2000/svg">
<path d="M1 11.9038L1.00003 9.16667L11 1L21 9.16667V11.0962M21 9.16667V20.8333C21 21.4777 20.3604 22 19.5714 22H15.2857M16.934 22H15.2857M15.2857 22C14.4967 22 13.8572 21.4777 13.8572 20.8333V16.1667C13.8572 15.5223 13.2176 15 12.4286 15H9.57144C8.78247 15 8.14287 15.5223 8.14287 16.1667V20.8333C8.14287 21.4777 7.50328 22 6.7143 22M6.7143 22H5.06591M6.7143 22H2.4286C1.63962 22 1.00003 21.4777 1.00003 20.8333V9.16667" stroke="#A1A1AA" stroke-width="2" stroke-linecap="round" stroke-linejoin="round"/>
</svg>
