<svg width="24" height="24" viewBox="0 0 24 24" fill="none" xmlns="http://www.w3.org/2000/svg">
<path d="M4.40382 18.4904C5.46632 17.7019 6.62377 17.0793 7.87617 16.6226C9.12856 16.1658 10.4615 15.9375 11.875 15.9375C13.2884 15.9375 14.6213 16.1658 15.8737 16.6226C17.1261 17.0793 18.2836 17.7019 19.3461 18.4904C20.1233 17.6362 20.7391 16.6474 21.1935 15.524C21.6478 14.4006 21.875 13.1843 21.875 11.875C21.875 9.10412 20.901 6.74475 18.9531 4.79683C17.0052 2.84891 14.6458 1.87495 11.875 1.87495C9.10412 1.87495 6.74475 2.84891 4.79683 4.79683C2.84891 6.74475 1.87495 9.10412 1.87495 11.875C1.87495 13.1843 2.10212 14.4006 2.55645 15.524C3.01078 16.6474 3.62657 17.6362 4.40382 18.4904ZM11.875 12.8124C10.7339 12.8124 9.7716 12.4206 8.98795 11.637C8.2043 10.8533 7.81248 9.89097 7.81248 8.74995C7.81248 7.60893 8.2043 6.6466 8.98795 5.86295C9.7716 5.0793 10.7339 4.68748 11.875 4.68748C13.016 4.68748 13.9783 5.0793 14.762 5.86295C15.5456 6.6466 15.9374 7.60893 15.9374 8.74995C15.9374 9.89097 15.5456 10.8533 14.762 11.637C13.9783 12.4206 13.016 12.8124 11.875 12.8124ZM11.875 23.7499C10.2259 23.7499 8.67905 23.4398 7.23435 22.8196C5.78964 22.1994 4.53283 21.3549 3.46393 20.286C2.39502 19.2171 1.55047 17.9603 0.930285 16.5156C0.310095 15.0709 0 13.524 0 11.875C0 10.2259 0.310095 8.67905 0.930285 7.23435C1.55047 5.78964 2.39502 4.53283 3.46393 3.46393C4.53283 2.39502 5.78964 1.55047 7.23435 0.930285C8.67905 0.310095 10.2259 0 11.875 0C13.524 0 15.0709 0.310095 16.5156 0.930285C17.9603 1.55047 19.2171 2.39502 20.286 3.46393C21.3549 4.53283 22.1994 5.78964 22.8196 7.23435C23.4398 8.67905 23.7499 10.2259 23.7499 11.875C23.7499 13.524 23.4398 15.0709 22.8196 16.5156C22.1994 17.9603 21.3549 19.2171 20.286 20.286C19.2171 21.3549 17.9603 22.1994 16.5156 22.8196C15.0709 23.4398 13.524 23.7499 11.875 23.7499ZM11.875 21.875C13.0032 21.875 14.0909 21.6935 15.1382 21.3305C16.1855 20.9675 17.1154 20.4599 17.9279 19.8076C17.1154 19.1794 16.1975 18.6898 15.1742 18.3389C14.151 17.9879 13.0512 17.8124 11.875 17.8124C10.6987 17.8124 9.5969 17.9859 8.56965 18.3329C7.54241 18.6798 6.62654 19.1714 5.82205 19.8076C6.63455 20.4599 7.56444 20.9675 8.61172 21.3305C9.659 21.6935 10.7467 21.875 11.875 21.875ZM11.875 10.9375C12.4968 10.9375 13.0168 10.7283 13.4351 10.3101C13.8533 9.89179 14.0625 9.37175 14.0625 8.74995C14.0625 8.12815 13.8533 7.60812 13.4351 7.18984C13.0168 6.77157 12.4968 6.56243 11.875 6.56243C11.2532 6.56243 10.7331 6.77157 10.3148 7.18984C9.89657 7.60812 9.68743 8.12815 9.68743 8.74995C9.68743 9.37175 9.89657 9.89179 10.3148 10.3101C10.7331 10.7283 11.2532 10.9375 11.875 10.9375Z" fill="#A98FDB"/>
</svg>
