<svg width="19" height="19" viewBox="0 0 19 19" fill="none" xmlns="http://www.w3.org/2000/svg">
<path d="M1.80768 18.7691C1.30255 18.7691 0.874992 18.5941 0.524995 18.2441C0.174998 17.8941 0 17.4666 0 16.9615V7.57689C0 7.07177 0.174998 6.64421 0.524995 6.29421C0.874992 5.94421 1.30255 5.76921 1.80768 5.76921H17.1922C17.6974 5.76921 18.1249 5.94421 18.4749 6.29421C18.8249 6.64421 18.9999 7.07177 18.9999 7.57689V16.9615C18.9999 17.4666 18.8249 17.8941 18.4749 18.2441C18.1249 18.5941 17.6974 18.7691 17.1922 18.7691H1.80768ZM1.80768 17.2692H17.1922C17.2692 17.2692 17.3397 17.2371 17.4038 17.173C17.4679 17.1089 17.5 17.0384 17.5 16.9615V7.57689C17.5 7.49996 17.4679 7.42945 17.4038 7.36534C17.3397 7.30123 17.2692 7.26918 17.1922 7.26918H1.80768C1.73075 7.26918 1.66023 7.30123 1.59612 7.36534C1.53202 7.42945 1.49996 7.49996 1.49996 7.57689V16.9615C1.49996 17.0384 1.53202 17.1089 1.59612 17.173C1.66023 17.2371 1.73075 17.2692 1.80768 17.2692ZM7.74998 15.8076L13.0576 12.2692L7.74998 8.73075V15.8076ZM1.74998 4.38457V2.88461H17.2499V4.38457H1.74998ZM4.74998 1.49996V0H14.2499V1.49996H4.74998ZM1.49996 17.2692C1.49996 17.2692 1.49996 17.2371 1.49996 17.173C1.49996 17.1089 1.49996 17.0384 1.49996 16.9615V7.57689C1.49996 7.49996 1.49996 7.42945 1.49996 7.36534C1.49996 7.30123 1.49996 7.26918 1.49996 7.26918C1.49996 7.26918 1.49996 7.30123 1.49996 7.36534C1.49996 7.42945 1.49996 7.49996 1.49996 7.57689V16.9615C1.49996 17.0384 1.49996 17.1089 1.49996 17.173C1.49996 17.2371 1.49996 17.2692 1.49996 17.2692Z" fill="#72DEEF" fill-opacity="0.71"/>
</svg>
