<svg width="17" height="17" viewBox="0 0 17 17" fill="none" xmlns="http://www.w3.org/2000/svg">
<path d="M10.3846 16.2691V14.7192C11.8269 14.2602 12.9887 13.4269 13.8701 12.2192C14.7515 11.0115 15.1922 9.64995 15.1922 8.13457C15.1922 6.61919 14.7515 5.25765 13.8701 4.04996C12.9887 2.84227 11.8269 2.00894 10.3846 1.54996V0C12.2461 0.49872 13.7627 1.49808 14.9345 2.99807C16.1063 4.49806 16.6922 6.21023 16.6922 8.13457C16.6922 10.0589 16.1063 11.7711 14.9345 13.2711C13.7627 14.7711 12.2461 15.7704 10.3846 16.2691ZM0 10.6595V5.65961H3.71152L7.99993 1.3712V14.9479L3.71152 10.6595H0ZM10.3846 11.8134V4.45575C11.0589 4.82242 11.5801 5.33876 11.948 6.00478C12.316 6.6708 12.4999 7.38906 12.4999 8.15957C12.4999 8.91982 12.3144 9.62719 11.9432 10.2817C11.5721 10.9361 11.0525 11.4467 10.3846 11.8134ZM6.49996 5.00957L4.34996 7.15957H1.49996V9.15957H4.34996L6.49996 11.3096V5.00957Z" fill="#72DEEF"/>
</svg>
