<svg width="22" height="23" viewBox="0 0 22 23" fill="none" xmlns="http://www.w3.org/2000/svg">
<path d="M18.7778 10.3333H3.22222M18.7778 10.3333C20.0051 10.3333 21 11.378 21 12.6667V19.6667C21 20.9553 20.0051 22 18.7778 22H3.22222C1.99492 22 1 20.9553 1 19.6667V12.6667C1 11.378 1.99492 10.3333 3.22222 10.3333M18.7778 10.3333V8C18.7778 6.71134 17.7829 5.66667 16.5556 5.66667M3.22222 10.3333V8C3.22222 6.71134 4.21715 5.66667 5.44444 5.66667M5.44444 5.66667V3.33333C5.44444 2.04467 6.43937 1 7.66667 1H14.3333C15.5606 1 16.5556 2.04467 16.5556 3.33333V5.66667M5.44444 5.66667H16.5556" stroke="#A1A1AA" stroke-width="2" stroke-linecap="round" stroke-linejoin="round"/>
</svg>
