<svg width="12" height="12" viewBox="0 0 12 12" fill="none" xmlns="http://www.w3.org/2000/svg">
<path d="M4.89355 6.54765C5.1311 6.86522 5.43416 7.12798 5.78218 7.31812C6.13021 7.50827 6.51505 7.62134 6.91062 7.64967C7.30618 7.678 7.70321 7.62092 8.07478 7.48232C8.44635 7.34371 8.78376 7.12681 9.06414 6.84634L10.7235 5.18696C11.2273 4.66535 11.5061 3.96675 11.4998 3.24161C11.4935 2.51646 11.2026 1.82281 10.6898 1.31004C10.1771 0.797265 9.4834 0.506406 8.75826 0.500105C8.03312 0.493803 7.33451 0.772564 6.81291 1.27635L5.86153 2.22219" stroke="#A1A1AA" stroke-linecap="round" stroke-linejoin="round"/>
<path d="M7.10631 5.44136C6.86877 5.12379 6.56571 4.86102 6.21768 4.67088C5.86966 4.48074 5.48481 4.36767 5.08925 4.33934C4.69368 4.31101 4.29665 4.36809 3.92508 4.50669C3.55351 4.6453 3.2161 4.86219 2.93573 5.14267L1.27635 6.80205C0.772564 7.32365 0.493803 8.02226 0.500105 8.7474C0.506406 9.47254 0.797265 10.1662 1.31004 10.679C1.82281 11.1917 2.51646 11.4826 3.24161 11.4889C3.96675 11.4952 4.66535 11.2164 5.18696 10.7127L6.13281 9.76681" stroke="#A1A1AA" stroke-linecap="round" stroke-linejoin="round"/>
</svg>
