<svg width="82" height="113" viewBox="0 0 82 113" fill="none" xmlns="http://www.w3.org/2000/svg">
<path d="M78.9464 49.2471C75.2136 66.921 59.5965 80.1809 40.8974 80.1809C19.4149 80.1809 2 62.6795 2 41.0905C2 19.5014 19.4149 2 40.8974 2C50.9648 2 60.1386 5.84356 67.0459 12.1503" stroke="url(#paint0_linear_118_621)" stroke-width="4" stroke-linecap="round"/>
<path d="M60.9204 46.8617H77.6126C77.6126 46.8617 79.5023 46.6163 78.9464 49.2471" stroke="url(#paint1_linear_118_621)" stroke-width="4" stroke-linecap="round"/>
<path d="M61.1501 17.1405C55.6983 12.4961 48.6424 9.69498 40.9357 9.69498C23.661 9.69498 9.65698 23.7685 9.65698 41.1289C9.65698 58.4896 23.661 72.5629 40.9357 72.5629C54.1264 72.5629 65.4097 64.357 70.0077 52.7484" stroke="url(#paint2_linear_118_621)" stroke-width="4" stroke-linecap="round"/>
<path d="M61.1126 53.4794C56.9648 60.3087 49.4801 64.8679 40.9357 64.8679C27.8898 64.8679 17.314 54.2396 17.314 41.1289C17.314 28.0183 27.8898 17.39 40.9357 17.39C46.7244 17.39 52.0268 19.4825 56.1348 22.956" stroke="url(#paint3_linear_118_621)" stroke-width="4" stroke-linecap="round"/>
<path d="M52.134 40.019C52.925 40.4781 52.925 41.6259 52.134 42.085L35.4227 51.7811C34.6315 52.2402 33.6425 51.6664 33.6425 50.7482V31.3558C33.6425 30.4376 34.6315 29.8638 35.4227 30.3229L52.134 40.019Z" fill="white" stroke="white" stroke-linejoin="round"/>
<path d="M9.79484 113C8.21751 113 6.82394 112.654 5.61414 111.961C4.40434 111.253 3.45487 110.276 2.76575 109.029C2.07662 107.783 1.73206 106.352 1.73206 104.736V104.435C1.73206 102.804 2.07662 101.365 2.76575 100.119C3.47019 98.872 4.44262 97.9025 5.68305 97.2099C6.92348 96.502 8.34768 96.148 9.95564 96.148C11.0276 96.148 12.0154 96.3327 12.9189 96.702C13.8224 97.056 14.6264 97.5639 15.3308 98.2257L13.6769 99.9109C13.1716 99.403 12.5973 99.0336 11.9541 98.8028C11.3262 98.5565 10.6677 98.4334 9.97861 98.4334C8.84538 98.4334 7.84232 98.695 6.96942 99.2183C6.09653 99.7262 5.4074 100.426 4.90204 101.319C4.412 102.212 4.16697 103.25 4.16697 104.435V104.736C4.16697 105.921 4.412 106.959 4.90204 107.852C5.39209 108.745 6.0659 109.453 6.92348 109.976C7.78106 110.484 8.76115 110.738 9.86376 110.738C10.6295 110.738 11.3186 110.599 11.9311 110.322C12.559 110.03 13.0797 109.637 13.4932 109.145C13.9219 108.637 14.2282 108.052 14.412 107.39C14.6111 106.729 14.6647 106.021 14.5728 105.267L15.6065 105.959H10.5759V103.997H16.9388C17.0919 105.305 17.0307 106.505 16.755 107.598C16.4947 108.691 16.0429 109.645 15.3997 110.461C14.7719 111.261 13.9832 111.884 13.0337 112.331C12.0996 112.777 11.02 113 9.79484 113ZM19.2883 112.654V101.481H21.4705V104.528L21.1719 104.505C21.2484 103.704 21.4399 103.081 21.7461 102.635C22.0524 102.189 22.4429 101.873 22.9177 101.688C23.4077 101.504 23.936 101.411 24.5027 101.411H25.4215V103.651H24.3189C23.4307 103.651 22.7416 103.866 22.2515 104.297C21.7768 104.713 21.5394 105.344 21.5394 106.19V112.654H19.2883ZM31.8984 112.885C30.8265 112.885 29.8617 112.638 29.0041 112.146C28.1465 111.653 27.4727 110.976 26.9827 110.114C26.4926 109.253 26.2476 108.26 26.2476 107.136V106.929C26.2476 105.821 26.4926 104.843 26.9827 103.997C27.4727 103.135 28.1465 102.466 29.0041 101.988C29.8617 101.496 30.8265 101.25 31.8984 101.25C32.9704 101.25 33.9275 101.488 34.7698 101.965C35.6121 102.442 36.2782 103.112 36.7683 103.974C37.2583 104.82 37.5033 105.798 37.5033 106.906V107.136C37.5033 108.26 37.2583 109.253 36.7683 110.114C36.2782 110.976 35.6121 111.653 34.7698 112.146C33.9275 112.638 32.9704 112.885 31.8984 112.885ZM31.8984 110.876C32.5569 110.876 33.1389 110.722 33.6442 110.414C34.1496 110.091 34.5401 109.645 34.8157 109.076C35.1067 108.506 35.2522 107.86 35.2522 107.136V106.906C35.2522 106.182 35.1067 105.551 34.8157 105.013C34.5401 104.459 34.1496 104.028 33.6442 103.72C33.1389 103.412 32.5569 103.258 31.8984 103.258C31.2399 103.258 30.658 103.42 30.1527 103.743C29.6473 104.051 29.2491 104.482 28.9582 105.036C28.6672 105.574 28.5217 106.205 28.5217 106.929V107.136C28.5217 107.86 28.6672 108.506 28.9582 109.076C29.2491 109.645 29.6473 110.091 30.1527 110.414C30.658 110.722 31.2399 110.876 31.8984 110.876ZM44.9541 112.885C43.8821 112.885 42.9174 112.638 42.0598 112.146C41.2022 111.653 40.5284 110.976 40.0383 110.114C39.5483 109.253 39.3033 108.26 39.3033 107.136V106.929C39.3033 105.821 39.5483 104.843 40.0383 103.997C40.5284 103.135 41.2022 102.466 42.0598 101.988C42.9174 101.496 43.8821 101.25 44.9541 101.25C46.0261 101.25 46.9832 101.488 47.8255 101.965C48.6677 102.442 49.3339 103.112 49.8239 103.974C50.314 104.82 50.559 105.798 50.559 106.906V107.136C50.559 108.26 50.314 109.253 49.8239 110.114C49.3339 110.976 48.6677 111.653 47.8255 112.146C46.9832 112.638 46.0261 112.885 44.9541 112.885ZM44.9541 110.876C45.6126 110.876 46.1945 110.722 46.6999 110.414C47.2053 110.091 47.5958 109.645 47.8714 109.076C48.1624 108.506 48.3079 107.86 48.3079 107.136V106.906C48.3079 106.182 48.1624 105.551 47.8714 105.013C47.5958 104.459 47.2053 104.028 46.6999 103.72C46.1945 103.412 45.6126 103.258 44.9541 103.258C44.2956 103.258 43.7137 103.42 43.2083 103.743C42.703 104.051 42.3048 104.482 42.0138 105.036C41.7229 105.574 41.5774 106.205 41.5774 106.929V107.136C41.5774 107.86 41.7229 108.506 42.0138 109.076C42.3048 109.645 42.703 110.091 43.2083 110.414C43.7137 110.722 44.2956 110.876 44.9541 110.876ZM55.7872 112.654L51.4227 101.481H53.7657L57.3951 111.153H56.5223L60.1517 101.481H62.4947L58.1532 112.654H55.7872ZM64.3331 112.654V101.481H66.5154V104.528L66.2167 104.505C66.2933 103.704 66.4847 103.081 66.791 102.635C67.0973 102.189 67.4878 101.873 67.9625 101.688C68.4526 101.504 68.9809 101.411 69.5475 101.411H70.4664V103.651H69.3638C68.4755 103.651 67.7864 103.866 67.2964 104.297C66.8216 104.713 66.5843 105.344 66.5843 106.19V112.654H64.3331ZM78.7106 112.654L78.6876 109.191L78.435 108.383V105.544C78.435 104.728 78.2129 104.143 77.7688 103.789C77.3247 103.435 76.7428 103.258 76.023 103.258C75.4411 103.258 74.8438 103.374 74.2313 103.604C73.6187 103.82 73.0904 104.143 72.6463 104.574L71.6126 103.004C72.118 102.45 72.7765 102.019 73.5881 101.711C74.4151 101.404 75.2726 101.25 76.1608 101.25C77.0491 101.25 77.8301 101.411 78.5039 101.735C79.1777 102.042 79.706 102.504 80.0889 103.12C80.4717 103.735 80.6631 104.505 80.6631 105.428V109.029C80.6631 109.645 80.6631 110.253 80.6631 110.853C80.6785 111.453 80.7014 112.054 80.7321 112.654H78.7106ZM75.4028 112.885C74.1471 112.885 73.1363 112.577 72.3706 111.961C71.6203 111.346 71.2451 110.545 71.2451 109.56C71.2451 108.899 71.4365 108.314 71.8193 107.806C72.2022 107.283 72.7229 106.875 73.3814 106.582C74.0552 106.275 74.8285 106.121 75.7014 106.121C77.0491 106.121 78.0751 106.421 78.7795 107.021C79.484 107.621 79.8362 108.414 79.8362 109.399H79.3079C79.3079 110.491 78.9709 111.346 78.2971 111.961C77.6233 112.577 76.6585 112.885 75.4028 112.885ZM76.023 111.199C76.7734 111.199 77.363 111.045 77.7918 110.738C78.2206 110.414 78.435 109.999 78.435 109.491C78.435 108.999 78.2206 108.598 77.7918 108.291C77.363 107.967 76.7657 107.806 76 107.806C75.2497 107.806 74.6448 107.967 74.1853 108.291C73.7412 108.598 73.5192 108.999 73.5192 109.491C73.5192 109.999 73.7489 110.414 74.2083 110.738C74.6677 111.045 75.2726 111.199 76.023 111.199Z" fill="white"/>
<defs>
<linearGradient id="paint0_linear_118_621" x1="62.3568" y1="74.5536" x2="11.4348" y2="2.23698" gradientUnits="userSpaceOnUse">
<stop stop-color="#72DEEF"/>
<stop offset="1" stop-color="#A98FDB"/>
</linearGradient>
<linearGradient id="paint1_linear_118_621" x1="62.3569" y1="74.5536" x2="11.4347" y2="2.23696" gradientUnits="userSpaceOnUse">
<stop stop-color="#72DEEF"/>
<stop offset="1" stop-color="#A98FDB"/>
</linearGradient>
<linearGradient id="paint2_linear_118_621" x1="58.1922" y1="68.0375" x2="17.2438" y2="9.88554" gradientUnits="userSpaceOnUse">
<stop stop-color="#72DEEF"/>
<stop offset="1" stop-color="#A98FDB"/>
</linearGradient>
<linearGradient id="paint3_linear_118_621" x1="53.9679" y1="61.4506" x2="23.0436" y2="17.5339" gradientUnits="userSpaceOnUse">
<stop stop-color="#72DEEF"/>
<stop offset="1" stop-color="#A98FDB"/>
</linearGradient>
</defs>
</svg>
