<svg width="430" height="370" viewBox="0 0 430 370" fill="none" xmlns="http://www.w3.org/2000/svg">
<g filter="url(#filter0_d_47_9242)">
<path d="M360.189 145.756C356.477 108.907 325.388 80.128 287.588 80.128C287.231 80.128 286.893 80.1478 286.536 80.1478C286 40.258 253.561 8.09961 213.597 8.09961C173.634 8.09961 140.619 40.8145 140.619 81.1615C140.619 81.5192 140.638 81.8571 140.638 82.2149C104.149 82.7118 74.1319 110.021 69.3474 145.359C33.2354 151.481 11.0996 162.273 11.0996 180.976C11.0996 218.48 100.159 273.575 212.545 273.575C324.931 273.575 418.1 218.48 418.1 180.976C418.1 162.69 395.924 151.958 360.169 145.756H360.189Z" fill="#1B1464"/>
<path d="M360.189 145.756C356.477 108.907 325.388 80.128 287.588 80.128C287.231 80.128 286.893 80.1478 286.536 80.1478C286 40.258 253.561 8.09961 213.597 8.09961C173.634 8.09961 140.619 40.8145 140.619 81.1615C140.619 81.5192 140.638 81.8571 140.638 82.2149C104.149 82.7118 74.1319 110.021 69.3474 145.359C33.2354 151.481 11.0996 162.273 11.0996 180.976C11.0996 218.48 100.159 273.575 212.545 273.575C324.931 273.575 418.1 218.48 418.1 180.976C418.1 162.69 395.924 151.958 360.169 145.756H360.189Z" stroke="#1C3244" stroke-width="7" stroke-miterlimit="10"/>
</g>
<g filter="url(#filter1_d_47_9242)">
<path d="M355.205 146.034C351.611 110.437 321.594 82.6517 285.085 82.6517C284.748 82.6517 284.41 82.6716 284.073 82.6716C283.556 44.1531 252.229 13.0879 213.615 13.0879C175.002 13.0879 143.138 44.6699 143.138 83.6455C143.138 83.9833 143.158 84.3212 143.158 84.6591C107.92 85.1361 78.9348 111.511 74.3091 145.637C39.4279 151.56 18.0664 161.974 18.0664 180.041C18.0664 216.274 104.068 269.48 212.623 269.48C321.177 269.48 411.15 216.274 411.15 180.041C411.15 162.372 389.729 152.017 355.205 146.034Z" fill="#1C3244"/>
<path d="M355.205 146.034C351.611 110.437 321.594 82.6517 285.085 82.6517C284.748 82.6517 284.41 82.6716 284.073 82.6716C283.556 44.1531 252.229 13.0879 213.615 13.0879C175.002 13.0879 143.138 44.6699 143.138 83.6455C143.138 83.9833 143.158 84.3212 143.158 84.6591C107.92 85.1361 78.9348 111.511 74.3091 145.637C39.4279 151.56 18.0664 161.974 18.0664 180.041C18.0664 216.274 104.068 269.48 212.623 269.48C321.177 269.48 411.15 216.274 411.15 180.041C411.15 162.372 389.729 152.017 355.205 146.034Z" stroke="#72DEEF" stroke-width="2" stroke-miterlimit="10"/>
</g>
<g filter="url(#filter2_d_47_9242)">
<path d="M113.873 296.339L140.673 276.362L160.627 303.192C168.807 314.192 166.53 329.766 155.542 337.956L148.647 343.096C137.66 351.286 122.103 349.006 113.923 338.006L108.789 331.103C100.608 320.103 102.886 304.529 113.873 296.339Z" fill="#1C3244"/>
<path d="M113.873 296.339L140.673 276.362L160.627 303.192C168.807 314.192 166.53 329.766 155.542 337.956L148.647 343.096C137.66 351.286 122.103 349.006 113.923 338.006L108.789 331.103C100.608 320.103 102.886 304.529 113.873 296.339Z" stroke="#72DEEF" stroke-width="2" stroke-miterlimit="10"/>
</g>
<g filter="url(#filter3_d_47_9242)">
<path d="M120.416 297.231L140.321 282.394L155.141 302.321C163.322 313.321 161.044 328.896 150.057 337.086C139.069 345.276 123.513 342.995 115.332 331.996C107.151 320.996 109.429 305.421 120.416 297.231Z" fill="#1C3244"/>
<path d="M120.416 297.231L140.321 282.394L155.141 302.321C163.322 313.321 161.044 328.896 150.057 337.086C139.069 345.276 123.513 342.995 115.332 331.996C107.151 320.996 109.429 305.421 120.416 297.231Z" stroke="#72DEEF" stroke-width="0.5" stroke-miterlimit="10"/>
</g>
<g filter="url(#filter4_d_47_9242)">
<path d="M195.602 308.718L218.054 283.946L242.798 306.424C252.942 315.639 253.705 331.361 244.5 341.518L238.723 347.891C229.518 358.047 213.814 358.811 203.67 349.595L197.304 343.812C187.159 334.596 186.397 318.874 195.602 308.718Z" fill="#1C3244"/>
<path d="M195.602 308.718L218.054 283.946L242.798 306.424C252.942 315.639 253.705 331.361 244.5 341.518L238.723 347.891C229.518 358.047 213.814 358.811 203.67 349.595L197.304 343.812C187.159 334.596 186.397 318.874 195.602 308.718Z" stroke="#72DEEF" stroke-width="2" stroke-miterlimit="10"/>
</g>
<g filter="url(#filter5_d_47_9242)">
<path d="M202.186 308.326L218.861 289.927L237.239 306.622C247.384 315.837 248.146 331.559 238.941 341.715C229.736 351.871 214.032 352.635 203.888 343.419C193.743 334.204 192.98 318.482 202.186 308.326Z" fill="#1C3244"/>
<path d="M202.186 308.326L218.861 289.927L237.239 306.622C247.384 315.837 248.146 331.559 238.941 341.715C229.736 351.871 214.032 352.635 203.888 343.419C193.743 334.204 192.98 318.482 202.186 308.326Z" stroke="#72DEEF" stroke-width="0.5" stroke-miterlimit="10"/>
</g>
<g filter="url(#filter6_d_47_9242)">
<path d="M284.79 306.494L303.363 278.688L331.137 297.281C342.524 304.904 345.586 320.344 337.972 331.744L333.194 338.898C325.579 350.298 310.158 353.363 298.771 345.74L291.625 340.956C280.238 333.333 277.176 317.894 284.79 306.494Z" fill="#1C3244"/>
<path d="M284.79 306.494L303.363 278.688L331.137 297.281C342.524 304.904 345.586 320.344 337.972 331.744L333.194 338.898C325.579 350.298 310.158 353.363 298.771 345.74L291.625 340.956C280.238 333.333 277.176 317.894 284.79 306.494Z" stroke="#72DEEF" stroke-width="2" stroke-miterlimit="10"/>
</g>
<g filter="url(#filter7_d_47_9242)">
<path d="M291.239 305.168L305.034 284.516L325.662 298.325C337.05 305.949 340.111 321.388 332.497 332.788C324.883 344.188 309.461 347.253 298.074 339.63C286.687 332.007 283.625 316.568 291.239 305.168Z" fill="#1C3244"/>
<path d="M291.239 305.168L305.034 284.516L325.662 298.325C337.05 305.949 340.111 321.388 332.497 332.788C324.883 344.188 309.461 347.253 298.074 339.63C286.687 332.007 283.625 316.568 291.239 305.168Z" stroke="#72DEEF" stroke-width="0.5" stroke-miterlimit="10"/>
</g>
<g filter="url(#filter8_d_47_9242)">
<path d="M188.82 132.34C188.82 144.424 167.14 126.378 155.07 126.378C143 126.378 125.291 144.424 125.291 132.34C125.291 120.256 143 112.465 155.07 112.465C167.14 112.465 188.82 120.256 188.82 132.34Z" fill="#1C3244" shape-rendering="crispEdges"/>
<path d="M188.82 132.34C188.82 144.424 167.14 126.378 155.07 126.378C143 126.378 125.291 144.424 125.291 132.34C125.291 120.256 143 112.465 155.07 112.465C167.14 112.465 188.82 120.256 188.82 132.34Z" stroke="#72DEEF" stroke-opacity="0.7" stroke-width="2" stroke-miterlimit="10" shape-rendering="crispEdges"/>
</g>
<g filter="url(#filter9_d_47_9242)">
<path d="M294.038 132.34C294.038 144.424 272.359 126.378 260.289 126.378C248.218 126.378 230.51 144.424 230.51 132.34C230.51 120.256 248.218 112.465 260.289 112.465C272.359 112.465 294.038 120.256 294.038 132.34Z" fill="#1C3244" shape-rendering="crispEdges"/>
<path d="M294.038 132.34C294.038 144.424 272.359 126.378 260.289 126.378C248.218 126.378 230.51 144.424 230.51 132.34C230.51 120.256 248.218 112.465 260.289 112.465C272.359 112.465 294.038 120.256 294.038 132.34Z" stroke="#72DEEF" stroke-opacity="0.7" stroke-width="2" stroke-miterlimit="10" shape-rendering="crispEdges"/>
</g>
<g filter="url(#filter10_d_47_9242)">
<path d="M157.055 198.923C164.73 198.923 170.952 188.023 170.952 174.576C170.952 161.129 164.73 150.229 157.055 150.229C149.38 150.229 143.158 161.129 143.158 174.576C143.158 188.023 149.38 198.923 157.055 198.923Z" fill="#1C3244" shape-rendering="crispEdges"/>
<path d="M157.055 198.923C164.73 198.923 170.952 188.023 170.952 174.576C170.952 161.129 164.73 150.229 157.055 150.229C149.38 150.229 143.158 161.129 143.158 174.576C143.158 188.023 149.38 198.923 157.055 198.923Z" stroke="#72DEEF" stroke-opacity="0.71" stroke-width="2" stroke-miterlimit="10" shape-rendering="crispEdges"/>
</g>
<g filter="url(#filter11_d_47_9242)">
<path d="M262.276 198.923C269.951 198.923 276.173 188.023 276.173 174.576C276.173 161.129 269.951 150.229 262.276 150.229C254.601 150.229 248.379 161.129 248.379 174.576C248.379 188.023 254.601 198.923 262.276 198.923Z" fill="#1C3244" shape-rendering="crispEdges"/>
<path d="M262.276 198.923C269.951 198.923 276.173 188.023 276.173 174.576C276.173 161.129 269.951 150.229 262.276 150.229C254.601 150.229 248.379 161.129 248.379 174.576C248.379 188.023 254.601 198.923 262.276 198.923Z" stroke="#72DEEF" stroke-opacity="0.71" stroke-width="2" stroke-miterlimit="10" shape-rendering="crispEdges"/>
</g>
<g filter="url(#filter12_d_47_9242)">
<path d="M248.376 234.699C248.376 242.928 231.481 233.706 210.656 233.706C189.83 233.706 172.936 242.928 172.936 234.699C172.936 226.471 189.83 219.793 210.656 219.793C231.481 219.793 248.376 226.471 248.376 234.699Z" fill="#1C3244" shape-rendering="crispEdges"/>
<path d="M248.376 234.699C248.376 242.928 231.481 233.706 210.656 233.706C189.83 233.706 172.936 242.928 172.936 234.699C172.936 226.471 189.83 219.793 210.656 219.793C231.481 219.793 248.376 226.471 248.376 234.699Z" stroke="#72DEEF" stroke-opacity="0.7" stroke-width="2" stroke-miterlimit="10" shape-rendering="crispEdges"/>
</g>
<defs>
<filter id="filter0_d_47_9242" x="-0.00039053" y="-0.00039053" width="429.2" height="287.675" filterUnits="userSpaceOnUse" color-interpolation-filters="sRGB">
<feFlood flood-opacity="0" result="BackgroundImageFix"/>
<feColorMatrix in="SourceAlpha" type="matrix" values="0 0 0 0 0 0 0 0 0 0 0 0 0 0 0 0 0 0 127 0" result="hardAlpha"/>
<feOffset dy="3"/>
<feGaussianBlur stdDeviation="3.8"/>
<feComposite in2="hardAlpha" operator="out"/>
<feColorMatrix type="matrix" values="0 0 0 0 0.446214 0 0 0 0 0.872477 0 0 0 0 0.9375 0 0 0 0.7 0"/>
<feBlend mode="normal" in2="BackgroundImageFix" result="effect1_dropShadow_47_9242"/>
<feBlend mode="normal" in="SourceGraphic" in2="effect1_dropShadow_47_9242" result="shape"/>
</filter>
<filter id="filter1_d_47_9242" x="6.36641" y="1.38789" width="416.484" height="279.793" filterUnits="userSpaceOnUse" color-interpolation-filters="sRGB">
<feFlood flood-opacity="0" result="BackgroundImageFix"/>
<feColorMatrix in="SourceAlpha" type="matrix" values="0 0 0 0 0 0 0 0 0 0 0 0 0 0 0 0 0 0 127 0" result="hardAlpha"/>
<feOffset/>
<feGaussianBlur stdDeviation="5.35"/>
<feComposite in2="hardAlpha" operator="out"/>
<feColorMatrix type="matrix" values="0 0 0 0 0.446214 0 0 0 0 0.872477 0 0 0 0 0.9375 0 0 0 1 0"/>
<feBlend mode="normal" in2="BackgroundImageFix" result="effect1_dropShadow_47_9242"/>
<feBlend mode="normal" in="SourceGraphic" in2="effect1_dropShadow_47_9242" result="shape"/>
</filter>
<filter id="filter2_d_47_9242" x="93.4809" y="270.563" width="80.4543" height="90.8488" filterUnits="userSpaceOnUse" color-interpolation-filters="sRGB">
<feFlood flood-opacity="0" result="BackgroundImageFix"/>
<feColorMatrix in="SourceAlpha" type="matrix" values="0 0 0 0 0 0 0 0 0 0 0 0 0 0 0 0 0 0 127 0" result="hardAlpha"/>
<feOffset dx="-1" dy="4"/>
<feGaussianBlur stdDeviation="4.2"/>
<feComposite in2="hardAlpha" operator="out"/>
<feColorMatrix type="matrix" values="0 0 0 0 0.447059 0 0 0 0 0.870588 0 0 0 0 0.937255 0 0 0 0.71 0"/>
<feBlend mode="normal" in2="BackgroundImageFix" result="effect1_dropShadow_47_9242"/>
<feBlend mode="normal" in="SourceGraphic" in2="effect1_dropShadow_47_9242" result="shape"/>
</filter>
<filter id="filter3_d_47_9242" x="103.372" y="276.245" width="63.7289" height="73.8051" filterUnits="userSpaceOnUse" color-interpolation-filters="sRGB">
<feFlood flood-opacity="0" result="BackgroundImageFix"/>
<feColorMatrix in="SourceAlpha" type="matrix" values="0 0 0 0 0 0 0 0 0 0 0 0 0 0 0 0 0 0 127 0" result="hardAlpha"/>
<feOffset dy="1"/>
<feGaussianBlur stdDeviation="3.4"/>
<feComposite in2="hardAlpha" operator="out"/>
<feColorMatrix type="matrix" values="0 0 0 0 0.447059 0 0 0 0 0.870588 0 0 0 0 0.937255 0 0 0 0.71 0"/>
<feBlend mode="normal" in2="BackgroundImageFix" result="effect1_dropShadow_47_9242"/>
<feBlend mode="normal" in="SourceGraphic" in2="effect1_dropShadow_47_9242" result="shape"/>
</filter>
<filter id="filter4_d_47_9242" x="178.768" y="278.133" width="80.5656" height="91.3039" filterUnits="userSpaceOnUse" color-interpolation-filters="sRGB">
<feFlood flood-opacity="0" result="BackgroundImageFix"/>
<feColorMatrix in="SourceAlpha" type="matrix" values="0 0 0 0 0 0 0 0 0 0 0 0 0 0 0 0 0 0 127 0" result="hardAlpha"/>
<feOffset dx="-1" dy="4"/>
<feGaussianBlur stdDeviation="4.2"/>
<feComposite in2="hardAlpha" operator="out"/>
<feColorMatrix type="matrix" values="0 0 0 0 0.447059 0 0 0 0 0.870588 0 0 0 0 0.937255 0 0 0 0.71 0"/>
<feBlend mode="normal" in2="BackgroundImageFix" result="effect1_dropShadow_47_9242"/>
<feBlend mode="normal" in="SourceGraphic" in2="effect1_dropShadow_47_9242" result="shape"/>
</filter>
<filter id="filter5_d_47_9242" x="188.702" y="283.774" width="63.723" height="74.1371" filterUnits="userSpaceOnUse" color-interpolation-filters="sRGB">
<feFlood flood-opacity="0" result="BackgroundImageFix"/>
<feColorMatrix in="SourceAlpha" type="matrix" values="0 0 0 0 0 0 0 0 0 0 0 0 0 0 0 0 0 0 127 0" result="hardAlpha"/>
<feOffset dy="1"/>
<feGaussianBlur stdDeviation="3.4"/>
<feComposite in2="hardAlpha" operator="out"/>
<feColorMatrix type="matrix" values="0 0 0 0 0.447059 0 0 0 0 0.870588 0 0 0 0 0.937255 0 0 0 0.71 0"/>
<feBlend mode="normal" in2="BackgroundImageFix" result="effect1_dropShadow_47_9242"/>
<feBlend mode="normal" in="SourceGraphic" in2="effect1_dropShadow_47_9242" result="shape"/>
</filter>
<filter id="filter6_d_47_9242" x="270.204" y="272.901" width="80.3547" height="90.4309" filterUnits="userSpaceOnUse" color-interpolation-filters="sRGB">
<feFlood flood-opacity="0" result="BackgroundImageFix"/>
<feColorMatrix in="SourceAlpha" type="matrix" values="0 0 0 0 0 0 0 0 0 0 0 0 0 0 0 0 0 0 127 0" result="hardAlpha"/>
<feOffset dx="-1" dy="4"/>
<feGaussianBlur stdDeviation="4.2"/>
<feComposite in2="hardAlpha" operator="out"/>
<feColorMatrix type="matrix" values="0 0 0 0 0.447059 0 0 0 0 0.870588 0 0 0 0 0.937255 0 0 0 0.71 0"/>
<feBlend mode="normal" in2="BackgroundImageFix" result="effect1_dropShadow_47_9242"/>
<feBlend mode="normal" in="SourceGraphic" in2="effect1_dropShadow_47_9242" result="shape"/>
</filter>
<filter id="filter7_d_47_9242" x="280.003" y="278.368" width="63.7309" height="73.5043" filterUnits="userSpaceOnUse" color-interpolation-filters="sRGB">
<feFlood flood-opacity="0" result="BackgroundImageFix"/>
<feColorMatrix in="SourceAlpha" type="matrix" values="0 0 0 0 0 0 0 0 0 0 0 0 0 0 0 0 0 0 127 0" result="hardAlpha"/>
<feOffset dy="1"/>
<feGaussianBlur stdDeviation="3.4"/>
<feComposite in2="hardAlpha" operator="out"/>
<feColorMatrix type="matrix" values="0 0 0 0 0.447059 0 0 0 0 0.870588 0 0 0 0 0.937255 0 0 0 0.71 0"/>
<feBlend mode="normal" in2="BackgroundImageFix" result="effect1_dropShadow_47_9242"/>
<feBlend mode="normal" in="SourceGraphic" in2="effect1_dropShadow_47_9242" result="shape"/>
</filter>
<filter id="filter8_d_47_9242" x="117.691" y="102.865" width="78.7293" height="39.241" filterUnits="userSpaceOnUse" color-interpolation-filters="sRGB">
<feFlood flood-opacity="0" result="BackgroundImageFix"/>
<feColorMatrix in="SourceAlpha" type="matrix" values="0 0 0 0 0 0 0 0 0 0 0 0 0 0 0 0 0 0 127 0" result="hardAlpha"/>
<feOffset dy="-2"/>
<feGaussianBlur stdDeviation="3.3"/>
<feComposite in2="hardAlpha" operator="out"/>
<feColorMatrix type="matrix" values="0 0 0 0 0.447059 0 0 0 0 0.870588 0 0 0 0 0.937255 0 0 0 0.71 0"/>
<feBlend mode="normal" in2="BackgroundImageFix" result="effect1_dropShadow_47_9242"/>
<feBlend mode="normal" in="SourceGraphic" in2="effect1_dropShadow_47_9242" result="shape"/>
</filter>
<filter id="filter9_d_47_9242" x="222.91" y="102.865" width="78.7293" height="39.241" filterUnits="userSpaceOnUse" color-interpolation-filters="sRGB">
<feFlood flood-opacity="0" result="BackgroundImageFix"/>
<feColorMatrix in="SourceAlpha" type="matrix" values="0 0 0 0 0 0 0 0 0 0 0 0 0 0 0 0 0 0 127 0" result="hardAlpha"/>
<feOffset dy="-2"/>
<feGaussianBlur stdDeviation="3.3"/>
<feComposite in2="hardAlpha" operator="out"/>
<feColorMatrix type="matrix" values="0 0 0 0 0.447059 0 0 0 0 0.870588 0 0 0 0 0.937255 0 0 0 0.71 0"/>
<feBlend mode="normal" in2="BackgroundImageFix" result="effect1_dropShadow_47_9242"/>
<feBlend mode="normal" in="SourceGraphic" in2="effect1_dropShadow_47_9242" result="shape"/>
</filter>
<filter id="filter10_d_47_9242" x="135.558" y="140.629" width="42.993" height="63.8953" filterUnits="userSpaceOnUse" color-interpolation-filters="sRGB">
<feFlood flood-opacity="0" result="BackgroundImageFix"/>
<feColorMatrix in="SourceAlpha" type="matrix" values="0 0 0 0 0 0 0 0 0 0 0 0 0 0 0 0 0 0 127 0" result="hardAlpha"/>
<feOffset dy="-2"/>
<feGaussianBlur stdDeviation="3.3"/>
<feComposite in2="hardAlpha" operator="out"/>
<feColorMatrix type="matrix" values="0 0 0 0 0.447059 0 0 0 0 0.870588 0 0 0 0 0.937255 0 0 0 0.71 0"/>
<feBlend mode="normal" in2="BackgroundImageFix" result="effect1_dropShadow_47_9242"/>
<feBlend mode="normal" in="SourceGraphic" in2="effect1_dropShadow_47_9242" result="shape"/>
</filter>
<filter id="filter11_d_47_9242" x="240.779" y="140.629" width="42.993" height="63.8953" filterUnits="userSpaceOnUse" color-interpolation-filters="sRGB">
<feFlood flood-opacity="0" result="BackgroundImageFix"/>
<feColorMatrix in="SourceAlpha" type="matrix" values="0 0 0 0 0 0 0 0 0 0 0 0 0 0 0 0 0 0 127 0" result="hardAlpha"/>
<feOffset dy="-2"/>
<feGaussianBlur stdDeviation="3.3"/>
<feComposite in2="hardAlpha" operator="out"/>
<feColorMatrix type="matrix" values="0 0 0 0 0.447059 0 0 0 0 0.870588 0 0 0 0 0.937255 0 0 0 0.71 0"/>
<feBlend mode="normal" in2="BackgroundImageFix" result="effect1_dropShadow_47_9242"/>
<feBlend mode="normal" in="SourceGraphic" in2="effect1_dropShadow_47_9242" result="shape"/>
</filter>
<filter id="filter12_d_47_9242" x="165.336" y="210.193" width="90.6395" height="33.5223" filterUnits="userSpaceOnUse" color-interpolation-filters="sRGB">
<feFlood flood-opacity="0" result="BackgroundImageFix"/>
<feColorMatrix in="SourceAlpha" type="matrix" values="0 0 0 0 0 0 0 0 0 0 0 0 0 0 0 0 0 0 127 0" result="hardAlpha"/>
<feOffset dy="-2"/>
<feGaussianBlur stdDeviation="3.3"/>
<feComposite in2="hardAlpha" operator="out"/>
<feColorMatrix type="matrix" values="0 0 0 0 0.447059 0 0 0 0 0.870588 0 0 0 0 0.937255 0 0 0 0.71 0"/>
<feBlend mode="normal" in2="BackgroundImageFix" result="effect1_dropShadow_47_9242"/>
<feBlend mode="normal" in="SourceGraphic" in2="effect1_dropShadow_47_9242" result="shape"/>
</filter>
</defs>
</svg>
